<svg width="109" height="28" viewBox="0 0 109 28" fill="none" xmlns="http://www.w3.org/2000/svg">
<path d="M32.4099 8.81123H35.047V19.425H32.4099V8.81123ZM36.0931 15.4175C36.0931 12.7925 37.7105 11.2262 40.2069 11.2262C42.7034 11.2262 44.3208 12.7925 44.3208 15.4175C44.3208 18.0425 42.7385 19.6175 40.2069 19.6175C37.6753 19.6175 36.0931 18.0862 36.0931 15.4175ZM41.6749 15.4175C41.6749 13.9737 41.1035 13.125 40.2069 13.125C39.3103 13.125 38.7477 14 38.7477 15.4175C38.7477 16.835 39.3015 17.6925 40.2069 17.6925C41.1123 17.6925 41.6749 16.8875 41.6749 15.4262V15.4175ZM45.3141 19.9412H47.8457C47.9662 20.2077 48.1699 20.4283 48.4265 20.5702C48.6831 20.712 48.9789 20.7677 49.2698 20.7287C50.2719 20.7287 50.7993 20.1862 50.7993 19.3987V17.9287H50.7465C50.5364 18.3793 50.1955 18.7567 49.7677 19.0126C49.34 19.2684 48.845 19.3907 48.3468 19.3637C46.4217 19.3637 45.1471 17.9025 45.1471 15.3912C45.1471 12.88 46.3602 11.2962 48.3819 11.2962C48.8958 11.2762 49.4035 11.413 49.8372 11.6881C50.2708 11.9634 50.6096 12.364 50.8081 12.8362V11.375H53.4452V19.3375C53.4452 21.2537 51.7486 22.4437 49.2434 22.4437C46.9139 22.4437 45.4635 21.4025 45.3141 19.95V19.9412ZM50.8081 15.4087C50.8081 14.1312 50.2191 13.3262 49.2873 13.3262C48.3556 13.3262 47.7842 14.1225 47.7842 15.4087C47.7842 16.695 48.3468 17.4212 49.2873 17.4212C50.2279 17.4212 50.8081 16.7125 50.8081 15.4175V15.4087ZM54.4385 15.4087C54.4385 12.7837 56.0559 11.2175 58.5523 11.2175C61.0488 11.2175 62.675 12.7837 62.675 15.4087C62.675 18.0337 61.0927 19.6087 58.5523 19.6087C56.0119 19.6087 54.4385 18.0862 54.4385 15.4175V15.4087ZM60.0203 15.4087C60.0203 13.965 59.4489 13.1162 58.5523 13.1162C57.6557 13.1162 57.1371 14 57.1371 15.4262C57.1371 16.8525 57.6909 17.7012 58.5875 17.7012C59.4841 17.7012 60.0203 16.8875 60.0203 15.4262V15.4087ZM63.6771 9.46748C63.6701 9.20244 63.7425 8.94134 63.8848 8.71726C64.0272 8.49317 64.2332 8.31621 64.4767 8.2088C64.7202 8.10138 64.9902 8.06835 65.2526 8.1139C65.515 8.15945 65.7578 8.28152 65.9504 8.46463C66.1431 8.64775 66.2767 8.88368 66.3345 9.1425C66.3922 9.40133 66.3715 9.67135 66.2748 9.91845C66.1782 10.1655 66.01 10.3784 65.7917 10.5303C65.5734 10.6821 65.3146 10.766 65.0484 10.7712C64.8719 10.7833 64.6948 10.7589 64.5282 10.6996C64.3615 10.6402 64.2091 10.5473 64.0803 10.4265C63.9515 10.3057 63.8492 10.1597 63.7799 9.99764C63.7104 9.83568 63.6754 9.66111 63.6771 9.48498V9.46748ZM63.6771 11.3925H66.3142V19.425H63.6771V11.3925ZM75.8869 15.4087C75.8869 18.0337 74.7177 19.53 72.7135 19.53C72.1997 19.5628 71.688 19.4378 71.2478 19.1718C70.8075 18.9057 70.4601 18.5115 70.2523 18.0425H70.1995V21.9975H67.5624V11.375H70.1995V12.81H70.2523C70.4504 12.3332 70.7913 11.9288 71.2285 11.6517C71.6657 11.3745 72.1781 11.2382 72.696 11.2612C74.7177 11.2962 75.922 12.8012 75.922 15.4262L75.8869 15.4087ZM73.2498 15.4087C73.2498 14.1312 72.6608 13.3175 71.7378 13.3175C70.8148 13.3175 70.2259 14.14 70.2171 15.4087C70.2083 16.6775 70.8148 17.4912 71.7378 17.4912C72.6608 17.4912 73.2498 16.695 73.2498 15.4262V15.4087ZM80.4139 11.2087C82.6027 11.2087 83.93 12.2412 83.9915 13.895H81.5918C81.5918 13.3262 81.1171 12.9675 80.3875 12.9675C79.6579 12.9675 79.3327 13.2475 79.3327 13.6587C79.3327 14.07 79.6227 14.2012 80.2117 14.3237L81.8994 14.665C83.5081 15.0062 84.1937 15.6537 84.1937 16.87C84.1937 18.5325 82.673 19.6 80.4314 19.6C78.1899 19.6 76.7219 18.5325 76.6077 16.8962H79.1481C79.2272 17.4912 79.7019 17.8412 80.4754 17.8412C81.2489 17.8412 81.6006 17.5875 81.6006 17.1675C81.6006 16.7475 81.3544 16.66 80.7215 16.5287L79.2008 16.205C77.6273 15.8812 76.801 15.05 76.801 13.825C76.8186 12.25 78.2339 11.2262 80.4139 11.2262V11.2087ZM92.9928 19.4075H90.4524V17.9112H90.3997C90.2599 18.4136 89.9522 18.8533 89.5268 19.1573C89.1013 19.4613 88.5845 19.6114 88.0614 19.5825C87.6608 19.6051 87.2599 19.542 86.8859 19.3972C86.5119 19.2523 86.1735 19.0294 85.8935 18.7432C85.6135 18.4571 85.3984 18.1143 85.263 17.7383C85.1274 17.3623 85.0746 16.9618 85.1079 16.5637V11.375H87.745V15.96C87.745 16.9137 88.2373 17.4212 89.0548 17.4212C89.2464 17.4216 89.4362 17.3812 89.6112 17.3028C89.7852 17.2243 89.9417 17.1095 90.0683 16.9661C90.194 16.8227 90.2889 16.6541 90.3443 16.4716C90.3997 16.289 90.4164 16.0967 90.3909 15.9075V11.375H93.028L92.9928 19.4075ZM94.2674 11.375H96.8166V12.9237H96.8693C97.0091 12.428 97.3106 11.9925 97.7255 11.6853C98.1404 11.3782 98.6468 11.2167 99.1636 11.2262C99.6902 11.1843 100.212 11.341 100.628 11.6653C101.043 11.9896 101.321 12.4575 101.405 12.9762H101.458C101.617 12.452 101.948 11.9956 102.397 11.6788C102.845 11.3619 103.387 11.2027 103.937 11.2262C104.295 11.2142 104.652 11.2775 104.985 11.4119C105.318 11.5462 105.617 11.7488 105.866 12.0062C106.115 12.2637 106.307 12.5704 106.429 12.9063C106.55 13.2422 106.6 13.6 106.574 13.9562V19.425H103.937V14.6562C103.937 13.7812 103.541 13.3787 102.803 13.3787C102.638 13.3773 102.475 13.4111 102.325 13.4778C102.174 13.5445 102.04 13.6425 101.931 13.7652C101.822 13.888 101.74 14.0325 101.692 14.1892C101.643 14.346 101.63 14.5112 101.651 14.6737V19.425H99.146V14.6212C99.146 13.8162 98.7505 13.3787 98.0297 13.3787C97.8635 13.3788 97.6983 13.414 97.5471 13.482C97.395 13.5501 97.2588 13.6494 97.1489 13.7734C97.0381 13.8973 96.9555 14.0433 96.9054 14.2016C96.8562 14.3598 96.8403 14.5266 96.8606 14.6912V19.425H94.2235L94.2674 11.375Z" fill="white"/>
<path d="M25.0348 9.29253C24.5875 8.27434 23.9955 7.32547 23.2768 6.47503C22.2145 5.18033 20.8887 4.12424 19.3868 3.3763C17.8849 2.62837 16.2408 2.20553 14.5629 2.13561C12.885 2.06568 11.2113 2.35027 9.65177 2.97064C8.09234 3.59101 6.68255 4.5331 5.51522 5.73489C4.34789 6.93668 3.44947 8.37093 2.87911 9.94326C2.30875 11.5156 2.07937 13.1903 2.20607 14.8572C2.33278 16.5241 2.81269 18.1454 3.61423 19.6144C4.41577 21.0834 5.52075 22.3668 6.85646 23.38C7.71352 24.0432 8.66054 24.5823 9.66935 24.9813C11.0837 25.5583 12.5975 25.8554 14.126 25.8563C17.2812 25.8494 20.3049 24.5974 22.5344 22.3749C24.7638 20.1524 26.0171 17.1408 26.0194 14C26.0216 12.38 25.6865 10.7771 25.0348 9.29253ZM14.1173 4.54127C15.49 4.54113 16.846 4.83977 18.0905 5.41627C17.787 5.54679 17.468 5.63796 17.1411 5.68753C16.0657 5.84248 15.0695 6.33946 14.3011 7.1043C13.5328 7.86913 13.0335 8.8608 12.8778 9.93128C12.8095 10.5316 12.5352 11.0901 12.1012 11.5126C11.6672 11.935 11.1002 12.1954 10.4956 12.25C9.42024 12.405 8.424 12.902 7.65565 13.6668C6.8873 14.4317 6.38801 15.4233 6.23235 16.4938C6.17964 17.0646 5.93496 17.6011 5.53791 18.0163C4.85284 16.5754 4.54509 14.9854 4.64329 13.3943C4.7415 11.8032 5.24247 10.2626 6.09959 8.91601C6.9567 7.56947 8.14211 6.4606 9.5455 5.69264C10.9489 4.92468 12.5246 4.52259 14.126 4.52377L14.1173 4.54127ZM6.84767 20.125C6.95315 20.0288 7.05864 19.9413 7.16412 19.8363C7.94615 19.0816 8.44813 18.0853 8.58815 17.01C8.64492 16.4056 8.91602 15.841 9.3529 15.4175C9.77334 14.982 10.3392 14.7143 10.944 14.665C12.0194 14.5101 13.0156 14.0131 13.7839 13.2482C14.5523 12.4834 15.0516 11.4918 15.2073 10.4213C15.2453 9.78909 15.5178 9.19348 15.972 8.75003C16.4028 8.3229 16.974 8.06499 17.5806 8.02377C18.5686 7.88847 19.49 7.45127 20.2177 6.77253C21.0464 7.45684 21.7484 8.28006 22.2923 9.20503C22.2589 9.24992 22.2205 9.29104 22.178 9.32753C21.7584 9.76695 21.1933 10.0405 20.5869 10.0975C19.5104 10.2498 18.5127 10.7459 17.7438 11.5112C16.975 12.2765 16.4766 13.2697 16.3236 14.3413C16.2617 14.9436 15.9924 15.5062 15.5615 15.9335C15.1305 16.361 14.5644 16.6269 13.959 16.6863C12.8805 16.84 11.8806 17.3361 11.1077 18.1005C10.335 18.8651 9.83048 19.8574 9.66935 20.93C9.62206 21.3576 9.47447 21.7683 9.23863 22.1288C8.33674 21.5957 7.529 20.9188 6.84767 20.125ZM14.1173 23.5025C13.2253 23.5035 12.3376 23.3798 11.4802 23.135C11.7735 22.5908 11.9642 21.9976 12.0427 21.385C12.1044 20.784 12.3724 20.2225 12.8015 19.7953C13.2307 19.3682 13.7947 19.1014 14.3985 19.04C15.4755 18.8868 16.4738 18.3906 17.2439 17.6256C18.0139 16.8607 18.5145 15.868 18.6706 14.7963C18.7323 14.1952 19.0003 13.6338 19.4294 13.2066C19.8586 12.7794 20.4226 12.5126 21.0264 12.4513C21.8369 12.3464 22.6094 12.046 23.2768 11.5763C23.6474 12.9744 23.6912 14.4385 23.4051 15.8562C23.119 17.2738 22.5103 18.6075 21.626 19.7547C20.7417 20.9019 19.6052 21.8322 18.3036 22.4743C17.002 23.1164 15.5699 23.4532 14.1173 23.4588V23.5025Z" fill="white"/>
</svg>
