<svg width="224" height="28" viewBox="0 0 224 28" fill="none" xmlns="http://www.w3.org/2000/svg">
<path d="M111.548 24.1301H104.002V3.95832H111.548V24.1301ZM104.739 23.3933H110.811V4.69516H104.739V23.3933ZM122.046 24.1301H114.653V3.95832H130.1C132.313 3.77912 134.516 4.40038 136.31 5.70906C137.082 6.41541 137.68 7.2906 138.058 8.26633C138.437 9.24207 138.584 10.292 138.489 11.3341C138.6 13.1349 138.027 14.911 136.885 16.3078C135.533 17.8581 133.284 18.6568 130.201 18.6848C129.425 18.7055 123.605 18.6848 122.051 18.6848L122.046 24.1301ZM115.385 23.3933H121.309V17.9406H121.679C121.754 17.9406 129.31 17.9642 130.184 17.9406C133.056 17.9156 135.121 17.2038 136.328 15.8141C137.344 14.5503 137.849 12.951 137.742 11.3326C137.833 10.3989 137.707 9.45677 137.375 8.57941C137.043 7.70205 136.513 6.91301 135.827 6.27348C134.164 5.07994 132.129 4.51969 130.089 4.69369H115.389L115.385 23.3933ZM128.535 14.1533H121.259V8.66232H128.583C129.103 8.59058 129.631 8.65118 130.121 8.83847C130.61 9.02577 131.045 9.3337 131.383 9.73369C131.691 10.245 131.836 10.8374 131.799 11.4328C131.827 11.9856 131.707 12.5359 131.453 13.0274C131.103 13.4487 130.651 13.773 130.14 13.9691C129.629 14.1653 129.076 14.2267 128.535 14.1474V14.1533ZM121.996 13.4164H128.535C129.743 13.4164 130.492 13.1644 130.823 12.6457C131.006 12.2686 131.089 11.851 131.064 11.4328C131.096 10.9938 131.001 10.5547 130.789 10.1684L130.781 10.1552C130.43 9.63937 129.733 9.39916 128.583 9.39916H121.996V13.4164ZM151.937 24.4278C145.32 24.4278 141.371 22.7846 139.866 19.4055C139.62 18.7528 139.453 18.073 139.368 17.3806L139.303 16.9562H147.175L147.227 17.2657C147.288 17.5799 147.421 17.8756 147.616 18.1293C147.927 18.5051 148.964 19.1358 152.407 19.1358C156.545 19.1358 156.545 18.4093 156.545 18.0187C156.545 17.36 156.066 17.1345 152.691 16.775L152.05 16.7145C150.78 16.5952 149.174 16.4434 148.44 16.38C142.25 15.82 139.487 13.8968 139.487 10.1463C139.487 6.20716 144.19 3.66211 151.468 3.66211C157.406 3.66211 161.231 5.22716 162.836 8.31748C163.216 9.03631 163.473 9.81472 163.592 10.6194L163.644 11.0335H155.763L155.73 10.7004C155.699 10.4401 155.589 10.196 155.412 10.0019C155.117 9.60695 154.186 8.95411 151.294 8.95411C147.744 8.95411 147.255 9.408 147.255 9.89727C147.255 10.5501 148.376 10.7815 151.971 11.1661C153.469 11.2884 155.879 11.536 156.704 11.6362C161.893 12.1992 164.208 14.0752 164.208 17.7211C164.21 20.7789 162.08 24.4278 151.937 24.4278ZM140.164 17.6931C140.237 18.1791 140.364 18.6554 140.542 19.1137C141.913 22.1922 145.641 23.6909 151.937 23.6909C157.201 23.6909 163.477 22.6594 163.477 17.7211C163.477 14.4893 161.429 12.8888 156.626 12.3686C155.801 12.2684 153.406 12.0223 151.91 11.8985C148.079 11.483 146.521 11.2619 146.521 9.89727C146.521 8.48548 148.2 8.21727 151.297 8.21727C153.745 8.21727 155.326 8.65937 155.997 9.55095C156.18 9.7706 156.318 10.0239 156.404 10.2966H162.791C162.662 9.72669 162.459 9.17618 162.186 8.65937C160.713 5.83137 157.112 4.39895 151.471 4.39895C144.641 4.39895 140.227 6.65516 140.227 10.1463C140.227 13.4768 142.704 15.1215 148.508 15.6461C149.244 15.7095 150.849 15.8613 152.123 15.9821L152.768 16.0425C155.903 16.3726 157.285 16.579 157.285 18.0187C157.285 19.5691 155.497 19.8726 152.41 19.8726C149.554 19.8726 147.75 19.4438 147.053 18.5994C146.838 18.3301 146.676 18.0226 146.576 17.6931H140.164ZM178.208 24.4027C170.516 24.4027 166.271 21.2918 166.271 15.6417V3.95832H173.716V15.6417C173.716 17.5796 175.451 18.6907 178.474 18.6907C181.362 18.6907 183.155 17.5309 183.155 15.6667V3.95832H190.524V16.2606C190.531 21.4347 186.038 24.4027 178.204 24.4027H178.208ZM167.008 4.69516V15.6417C167.008 22.624 174.02 23.6659 178.208 23.6659C182.538 23.6659 189.799 22.7036 189.799 16.2606V4.69516H183.904V15.6667C183.904 17.9509 181.776 19.4276 178.485 19.4276C175.046 19.4276 172.991 18.0128 172.991 15.6417V4.69516H167.008ZM221.748 24.1301H214.722V15.0227L210.737 24.1301H204.608L200.664 15.0404V24.1301H193.613V3.95832H202.888L207.707 15.0802L212.759 3.95832H221.757L221.748 24.1301ZM215.459 23.3933H221.011V4.69516H213.227L207.683 16.8958L202.399 4.69516H194.344V23.3933H199.921V11.4947L205.079 23.3977H210.237L215.45 11.5124L215.459 23.3933ZM8.92167 4.32674H2.21051V23.7617H20.7554V18.5876H8.92167V4.32674ZM34.3015 3.88464C25.7349 3.88464 21.2299 7.94464 21.2299 13.9057C21.2299 20.6404 25.9589 24.0564 34.3015 24.0564C43.4855 24.0564 47.348 20.0952 47.348 13.9057C47.348 7.62042 42.9903 3.88169 34.3015 3.88169V3.88464ZM34.2764 8.93495C34.8596 8.93221 35.4424 8.96616 36.0213 9.03663L28.5187 16.5392C28.1637 15.7361 27.9906 14.8645 28.0118 13.9867C28.0118 10.9377 29.5474 8.932 34.2764 8.932V8.93495ZM34.3015 19.0857C33.7395 19.0882 33.1781 19.0567 32.62 18.9914L40.1358 11.4756C40.4775 12.2653 40.6411 13.1207 40.6147 13.9808C40.6147 16.9474 39.2 19.0827 34.3015 19.0827V19.0857ZM60.6451 16.4331H67.5522C67.4505 16.9124 67.2386 17.3615 66.9333 17.7446C65.5013 18.9112 63.6738 19.4789 61.8328 19.3288C60.9062 19.428 59.9692 19.3268 59.0852 19.032C58.2011 18.7375 57.3906 18.2561 56.7088 17.6208C56.0105 16.5965 55.6787 15.3663 55.7672 14.1297C55.6541 12.8339 56.0149 11.5412 56.7825 10.4912C57.7478 9.40063 59.3821 8.93053 61.7842 8.93053C63.3126 8.80398 64.839 9.1965 66.1168 10.0446C66.5196 10.3645 66.8207 10.7946 66.9834 11.2825H73.3895C73.3429 10.4786 73.1496 9.68996 72.8192 8.95558C71.285 5.83579 67.7187 3.97895 61.6545 3.97895C56.3802 3.97895 52.8404 5.58821 50.8848 8.01537C49.5933 9.76811 48.9303 11.9051 49.0029 14.0811C48.9194 16.3063 49.5653 18.4978 50.8421 20.3221C52.7741 22.8274 56.2152 24.0594 60.3503 24.0594C63.0995 24.2511 65.8299 23.4811 68.0739 21.8813L68.2478 23.7617H73.5693V12.2493H60.6451V16.4331ZM88.6731 3.88021C80.108 3.88021 75.6015 7.94021 75.6015 13.9013C75.6015 20.636 80.3291 24.052 88.6731 24.052C97.8585 24.052 101.721 20.0907 101.721 13.9013C101.721 7.62042 97.3634 3.88169 88.6731 3.88169V3.88021ZM88.6495 8.93053C89.2173 8.92885 89.7847 8.96133 90.3486 9.02779L82.8756 16.5053C82.5316 15.7111 82.3642 14.8519 82.3848 13.9867C82.3789 10.9377 83.9204 8.93053 88.6495 8.93053ZM88.6731 19.0813C88.0963 19.0838 87.5199 19.0502 86.9474 18.9811L94.4882 11.4387C94.8429 12.239 95.0127 13.1089 94.9849 13.9838C94.9878 16.9474 93.579 19.0827 88.6731 19.0827V19.0813Z" fill="white"/>
</svg>
