<svg width="150" height="28" viewBox="0 0 150 28" fill="none" xmlns="http://www.w3.org/2000/svg">
<g clip-path="url(#clip0_219_22349)">
<path d="M144.547 7.16516L144.629 7.19274C145.705 7.22025 146.643 7.96386 146.918 8.98278L146.946 9.09296L149.731 20.384H146.036L144.381 13.6645L143.085 17.7678C142.699 18.897 141.651 19.6956 140.438 19.6956C139.28 19.6956 138.232 18.952 137.846 17.878L137.79 17.7678L136.494 13.6645L134.84 20.384H131.172L133.93 9.09296L133.958 8.98278C134.261 7.90877 135.226 7.16516 136.357 7.16516L136.44 7.19274C137.46 7.22025 138.342 7.88119 138.701 8.81758L138.728 8.90018L140.438 14.2703L142.147 8.90018L142.176 8.81758C142.534 7.8261 143.472 7.16516 144.547 7.16516Z" fill="white"/>
<path d="M124.396 20.384C120.728 20.384 117.778 17.4373 117.778 13.7746V7.16516H121.335V13.7746C121.335 15.4545 122.714 16.8315 124.396 16.8315C126.051 16.8315 127.429 15.4545 127.429 13.7746V7.16516H131.015V13.7746C131.015 17.4373 128.036 20.384 124.396 20.384Z" fill="white"/>
<path d="M117.13 7.16516V10.7453C115.586 10.7453 114.234 11.7642 113.793 13.2514L113.159 15.3444C112.276 18.3461 109.519 20.384 106.403 20.384V16.8315C107.919 16.8315 109.298 15.8125 109.739 14.3254L110.346 12.2324C111.229 9.23065 113.986 7.16516 117.13 7.16516Z" fill="white"/>
<path d="M102.83 12.8933C103.409 12.8933 103.905 12.4252 103.905 11.8193C103.905 11.241 103.409 10.7453 102.83 10.7453H98.8864V12.8933H102.83ZM102.83 7.16516C105.395 7.16516 107.49 9.25816 107.49 11.8193C107.49 14.3805 105.395 16.4735 102.83 16.4735H98.8864V20.384H95.3292V10.3873C95.3292 8.6248 96.7633 7.16516 98.5282 7.16516H102.83Z" fill="white"/>
<path d="M90.0287 7.16516H93.586V20.384H90.0287V7.16516Z" fill="white"/>
<path d="M82.0072 10.5801H81.2902C79.4979 10.5801 78.0638 12.0121 78.0638 13.7747C78.0638 15.5647 79.4979 16.9968 81.2902 16.9968H82.0072C83.7995 16.9968 85.2336 15.5647 85.2336 13.7747C85.2336 12.0121 83.7995 10.5801 82.0072 10.5801ZM81.2902 7H82.0072C85.7572 7 88.7909 10.0293 88.7909 13.7747C88.7909 17.5475 85.7572 20.5768 82.0072 20.5768H81.2902C77.5402 20.5768 74.5065 17.5475 74.5065 13.7747C74.5065 10.0293 77.5402 7 81.2902 7Z" fill="white"/>
<path d="M72.9953 10.7453H66.0464C64.3642 10.7453 62.9854 12.1223 62.9854 13.7746C62.9854 15.4545 64.3642 16.8315 66.0464 16.8315H69.4933C69.8519 16.7764 70.1552 16.4735 70.1552 16.0879V15.7575H64.7779V12.1774H70.7622C72.4164 12.1774 73.7124 13.4993 73.7124 15.124V16.0879C73.7124 18.4288 71.8647 20.3289 69.521 20.384H66.0464C62.3787 20.384 59.4281 17.4373 59.4281 13.7746C59.4281 10.1395 62.3787 7.16516 66.0464 7.16516H72.9953V10.7453Z" fill="white"/>
<path d="M52.0132 10.5801H51.2962C49.5037 10.5801 48.0698 12.0121 48.0698 13.7747C48.0698 15.5647 49.5037 16.9968 51.2962 16.9968H52.0132C53.8056 16.9968 55.2395 15.5647 55.2395 13.7747C55.2395 12.0121 53.8056 10.5801 52.0132 10.5801ZM51.2962 7H52.0132C55.7635 7 58.7969 10.0293 58.7969 13.7747C58.7969 17.5475 55.7635 20.5768 52.0132 20.5768H51.2962C47.5459 20.5768 44.5125 17.5475 44.5125 13.7747C44.5125 10.0293 47.5459 7 51.2962 7Z" fill="white"/>
<path d="M32.9439 15.0414V7.16516H36.5013V15.0414C36.5013 16.0328 37.301 16.8315 38.2937 16.8315H43.671V20.384H38.2937C35.343 20.384 32.9439 17.9881 32.9439 15.0414Z" fill="white"/>
<path d="M5.33573 1.75782C7.73909 0.426256 10.4817 -0.17043 13.2219 0.0419985C15.962 0.254436 18.5793 1.2668 20.7481 2.95274C22.9168 4.63875 24.5413 6.92476 25.4198 9.52546C26.2983 12.1262 26.3924 14.9276 25.6895 17.581L25.5485 18.0752C24.8005 20.5306 23.3898 22.7373 21.4668 24.4497L21.076 24.7847C19.0963 26.4212 16.7012 27.4849 14.1515 27.8547L13.6408 27.9196C11.9148 28.1056 10.1753 27.9676 8.50907 27.5218L10.9028 25.1313C11.8447 25.2353 12.8007 25.2215 13.7483 25.0841C15.9243 24.7686 17.9597 23.8213 19.6009 22.36C21.2419 20.8986 22.4165 18.9872 22.9789 16.8645C23.506 14.8745 23.4731 12.7803 22.8878 10.812L22.7633 10.4203C22.0604 8.3398 20.7608 6.51091 19.0259 5.16211C17.3994 3.89775 15.4574 3.10741 13.415 2.87344L13.0049 2.8338C10.8128 2.66385 8.61855 3.14121 6.69585 4.20645C5.41522 4.91602 4.29402 5.86696 3.38694 6.99756H0C1.26899 4.80399 3.11087 2.99052 5.33573 1.75782Z" fill="white"/>
<path d="M7.51037 5.3558C9.12568 4.49363 10.9508 4.10072 12.7784 4.22035C14.6059 4.34003 16.3639 4.96787 17.8526 6.03324C19.3411 7.09858 20.5017 8.55871 21.2026 10.2483C21.9034 11.938 22.1162 13.7908 21.818 15.5953C21.5195 17.3998 20.7214 19.0854 19.5139 20.4605C18.3063 21.8355 16.7371 22.8458 14.9845 23.3767L14.6546 23.471C13.863 23.681 13.0513 23.7881 12.2383 23.7965L16.9559 19.0858C17.1135 18.9369 17.2653 18.7812 17.409 18.6175C18.2721 17.6348 18.8427 16.4298 19.056 15.14C19.2692 13.8504 19.1167 12.5265 18.6158 11.3188C18.115 10.1111 17.2854 9.06761 16.2214 8.30622L16.0202 8.16671C15.0007 7.48967 13.8195 7.09032 12.595 7.0101L12.3505 6.99779C12.2413 6.99446 12.1317 6.99465 12.0226 6.99643H5.27206C5.93361 6.34967 6.68613 5.79581 7.51037 5.3558Z" fill="white"/>
<path d="M5.9652 22.1573C5.66148 22.4609 5.70348 22.9647 6.05329 23.214C6.32982 23.411 6.70844 23.3793 6.94873 23.1396L14.1137 15.9842C15.2115 14.8878 15.2115 13.1101 14.1137 12.0138C13.5865 11.4874 12.8713 11.1916 12.1258 11.1916H4.29334C3.98038 11.1916 3.7045 11.3978 3.61619 11.6976C3.48355 12.1486 3.82215 12.6002 4.29285 12.6006L11.7221 12.6068C13.1266 12.6075 13.8296 14.3033 12.8364 15.2954L5.9652 22.1573ZM8.93124 25.1195C7.72212 26.3268 5.81636 26.485 4.42456 25.4931C2.6641 24.2384 2.45352 21.7048 3.98265 20.1775L8.76189 15.4046L4.2914 15.4007C1.94955 15.3993 0.265708 13.151 0.926502 10.9073C1.36576 9.41588 2.73663 8.39185 4.29334 8.39185H12.1258C13.6149 8.39185 15.0432 8.98237 16.0962 10.0338C18.2889 12.2237 18.2889 15.7743 16.0962 17.9641L8.93124 25.1195Z" fill="white"/>
</g>
<defs>
<clipPath id="clip0_219_22349">
<rect width="150" height="28" fill="white"/>
</clipPath>
</defs>
</svg>
